<svg width="25" height="24" viewBox="0 0 25 24" fill="none" xmlns="http://www.w3.org/2000/svg">
<path d="M22.6833 11.8358L13.0294 2.18895C12.9599 2.1193 12.8773 2.06404 12.7864 2.02634C12.6955 1.98864 12.5981 1.96924 12.4997 1.96924C12.4013 1.96924 12.3039 1.98864 12.213 2.02634C12.1221 2.06404 12.0395 2.1193 11.97 2.18895L2.31611 11.8358C2.03486 12.1171 1.87549 12.4991 1.87549 12.8975C1.87549 13.7249 2.54814 14.3975 3.37549 14.3975H4.39268V21.2811C4.39268 21.696 4.72783 22.0311 5.14268 22.0311H10.9997V16.7811H13.6247V22.0311H19.8567C20.2716 22.0311 20.6067 21.696 20.6067 21.2811V14.3975H21.6239C22.0224 14.3975 22.4044 14.2405 22.6856 13.9569C23.2692 13.371 23.2692 12.4218 22.6833 11.8358Z" fill="#232323"/>
</svg>
