<svg width="25" height="24" viewBox="0 0 25 24" fill="none" xmlns="http://www.w3.org/2000/svg">
<path d="M20.6216 17.8969C20.1795 16.8496 19.5379 15.8984 18.7326 15.0961C17.9297 14.2915 16.9786 13.65 15.9318 13.207C15.9224 13.2023 15.913 13.2 15.9037 13.1953C17.3638 12.1406 18.313 10.4227 18.313 8.48438C18.313 5.27344 15.7115 2.67188 12.5005 2.67188C9.28961 2.67188 6.68805 5.27344 6.68805 8.48438C6.68805 10.4227 7.63727 12.1406 9.09742 13.1977C9.08805 13.2023 9.07867 13.2047 9.0693 13.2094C8.0193 13.6523 7.07711 14.2875 6.26852 15.0984C5.46393 15.9013 4.82243 16.8524 4.37945 17.8992C3.94427 18.924 3.70957 20.0228 3.68805 21.1359C3.68742 21.161 3.69181 21.1858 3.70095 21.2091C3.71009 21.2324 3.72381 21.2537 3.74128 21.2716C3.75875 21.2895 3.77963 21.3037 3.80269 21.3134C3.82575 21.3231 3.85052 21.3281 3.87555 21.3281H5.2818C5.38492 21.3281 5.46695 21.2461 5.4693 21.1453C5.51617 19.3359 6.24273 17.6414 7.52711 16.357C8.85602 15.0281 10.6209 14.2969 12.5005 14.2969C14.3802 14.2969 16.1451 15.0281 17.474 16.357C18.7584 17.6414 19.4849 19.3359 19.5318 21.1453C19.5341 21.2484 19.6162 21.3281 19.7193 21.3281H21.1255C21.1506 21.3281 21.1753 21.3231 21.1984 21.3134C21.2215 21.3037 21.2423 21.2895 21.2598 21.2716C21.2773 21.2537 21.291 21.2324 21.3001 21.2091C21.3093 21.1858 21.3137 21.161 21.313 21.1359C21.2896 20.0156 21.0576 18.9258 20.6216 17.8969ZM12.5005 12.5156C11.4248 12.5156 10.4123 12.0961 9.65055 11.3344C8.88883 10.5727 8.4693 9.56016 8.4693 8.48438C8.4693 7.40859 8.88883 6.39609 9.65055 5.63437C10.4123 4.87266 11.4248 4.45312 12.5005 4.45312C13.5763 4.45312 14.5888 4.87266 15.3505 5.63437C16.1123 6.39609 16.5318 7.40859 16.5318 8.48438C16.5318 9.56016 16.1123 10.5727 15.3505 11.3344C14.5888 12.0961 13.5763 12.5156 12.5005 12.5156Z" fill="#B4B4B4"/>
</svg>
