<svg width="21" height="21" viewBox="0 0 21 21" fill="none" xmlns="http://www.w3.org/2000/svg">
<path d="M7 11.5C7.79565 11.5 8.55871 11.8161 9.12132 12.3787C9.68393 12.9413 10 13.7044 10 14.5V18C10 18.7957 9.68393 19.5587 9.12132 20.1213C8.55871 20.6839 7.79565 21 7 21H3.5C2.70435 21 1.94129 20.6839 1.37868 20.1213C0.816071 19.5587 0.5 18.7957 0.5 18V14.5C0.5 13.7044 0.816071 12.9413 1.37868 12.3787C1.94129 11.8161 2.70435 11.5 3.5 11.5H7ZM18 11.5C18.7957 11.5 19.5587 11.8161 20.1213 12.3787C20.6839 12.9413 21 13.7044 21 14.5V18C21 18.7957 20.6839 19.5587 20.1213 20.1213C19.5587 20.6839 18.7957 21 18 21H14.5C13.7044 21 12.9413 20.6839 12.3787 20.1213C11.8161 19.5587 11.5 18.7957 11.5 18V14.5C11.5 13.7044 11.8161 12.9413 12.3787 12.3787C12.9413 11.8161 13.7044 11.5 14.5 11.5H18ZM7 13H3.5C3.11739 13 2.74924 13.1462 2.47087 13.4086C2.1925 13.6711 2.02495 14.0301 2.0025 14.412L2 14.5V18C1.99998 18.3826 2.14616 18.7508 2.40864 19.0291C2.67112 19.3075 3.03005 19.4751 3.412 19.4975L3.5 19.5H7C7.38261 19.5 7.75076 19.3538 8.02913 19.0914C8.3075 18.8289 8.47505 18.4699 8.4975 18.088L8.5 18V14.5C8.50002 14.1174 8.35384 13.7492 8.09136 13.4709C7.82888 13.1925 7.46995 13.0249 7.088 13.0025L7 13ZM18 13H14.5C14.1174 13 13.7492 13.1462 13.4709 13.4086C13.1925 13.6711 13.0249 14.0301 13.0025 14.412L13 14.5V18C13 18.3826 13.1462 18.7508 13.4086 19.0291C13.6711 19.3075 14.0301 19.4751 14.412 19.4975L14.5 19.5H18C18.3826 19.5 18.7508 19.3538 19.0291 19.0914C19.3075 18.8289 19.4751 18.4699 19.4975 18.088L19.5 18V14.5C19.5 14.1174 19.3538 13.7492 19.0914 13.4709C18.8289 13.1925 18.4699 13.0249 18.088 13.0025L18 13ZM7 0.5C7.79565 0.5 8.55871 0.816071 9.12132 1.37868C9.68393 1.94129 10 2.70435 10 3.5V7C10 7.79565 9.68393 8.55871 9.12132 9.12132C8.55871 9.68393 7.79565 10 7 10H3.5C2.70435 10 1.94129 9.68393 1.37868 9.12132C0.816071 8.55871 0.5 7.79565 0.5 7V3.5C0.5 2.70435 0.816071 1.94129 1.37868 1.37868C1.94129 0.816071 2.70435 0.5 3.5 0.5H7ZM18 0.5C18.7957 0.5 19.5587 0.816071 20.1213 1.37868C20.6839 1.94129 21 2.70435 21 3.5V7C21 7.79565 20.6839 8.55871 20.1213 9.12132C19.5587 9.68393 18.7957 10 18 10H14.5C13.7044 10 12.9413 9.68393 12.3787 9.12132C11.8161 8.55871 11.5 7.79565 11.5 7V3.5C11.5 2.70435 11.8161 1.94129 12.3787 1.37868C12.9413 0.816071 13.7044 0.5 14.5 0.5H18ZM7 2H3.5C3.11739 1.99998 2.74924 2.14616 2.47087 2.40864C2.1925 2.67112 2.02495 3.03005 2.0025 3.412L2 3.5V7C1.99998 7.38261 2.14616 7.75076 2.40864 8.02913C2.67112 8.3075 3.03005 8.47505 3.412 8.4975L3.5 8.5H7C7.38261 8.50002 7.75076 8.35384 8.02913 8.09136C8.3075 7.82888 8.47505 7.46995 8.4975 7.088L8.5 7V3.5C8.50002 3.11739 8.35384 2.74924 8.09136 2.47087C7.82888 2.1925 7.46995 2.02495 7.088 2.0025L7 2ZM18 2H14.5C14.1174 1.99998 13.7492 2.14616 13.4709 2.40864C13.1925 2.67112 13.0249 3.03005 13.0025 3.412L13 3.5V7C13 7.38261 13.1462 7.75076 13.4086 8.02913C13.6711 8.3075 14.0301 8.47505 14.412 8.4975L14.5 8.5H18C18.3826 8.50002 18.7508 8.35384 19.0291 8.09136C19.3075 7.82888 19.4751 7.46995 19.4975 7.088L19.5 7V3.5C19.5 3.11739 19.3538 2.74924 19.0914 2.47087C18.8289 2.1925 18.4699 2.02495 18.088 2.0025L18 2Z" fill="#232323"/>
</svg>
