<svg width="57" height="16" viewBox="0 0 57 16" fill="none" xmlns="http://www.w3.org/2000/svg">
<g clip-path="url(#clip0_1115_1118)">
<path d="M12.1918 15.8554H8.42503V14.3689C7.80689 15.2567 6.68651 15.9379 5.1798 15.9379C2.68793 15.9586 1.14258 14.245 1.14258 11.4992V5.4502H4.87073V11.045C4.87073 12.2425 5.58545 12.965 6.64788 12.965C7.72963 12.965 8.42503 12.2631 8.42503 11.045V5.4502H12.1918V15.8554Z" fill="#0FC97B"/>
<path d="M19.1461 5.32617C21.8504 5.32617 23.8401 6.83327 24.3809 9.4552H20.4017C20.1892 8.8152 19.7642 8.44359 19.0688 8.44359C18.1609 8.44359 17.5428 9.18682 17.5428 10.6733C17.5428 12.1804 18.1609 12.9236 19.0688 12.9236C19.7835 12.9236 20.1892 12.552 20.4017 11.912H24.3809C23.8401 14.4926 21.8504 16.041 19.1461 16.041C15.9588 16.041 13.718 14.0178 13.718 10.6939C13.718 7.3494 15.9395 5.32617 19.1461 5.32617Z" fill="#0FC97B"/>
<path d="M29.8864 5.32617C31.4124 5.32617 32.4942 5.96617 33.0351 6.8952V5.45004H36.7825V15.8552H33.0351V14.41C32.4749 15.3391 31.3931 15.9791 29.8864 15.9791C27.3366 15.9791 25.3276 13.9558 25.3276 10.632C25.3276 7.30811 27.3366 5.32617 29.8864 5.32617ZM31.0841 8.48488C30.0216 8.48488 29.1331 9.22811 29.1331 10.632C29.1331 12.0152 30.0216 12.7997 31.0841 12.7997C32.1272 12.7997 33.0351 12.0358 33.0351 10.632C33.0351 9.24875 32.1272 8.48488 31.0841 8.48488Z" fill="#0FC97B"/>
<path d="M42.6544 15.8551H38.907V5.44991H42.6544V7.28732C43.4658 6.15184 44.6827 5.34668 46.1122 5.34668V9.22797H45.0691C43.5237 9.22797 42.6544 9.70281 42.6544 11.3131V15.8551Z" fill="#0FC97B"/>
<path d="M52.023 15.9997C49.0482 15.9997 47.0586 14.4307 46.9041 12.3662H50.5356C50.6322 13.0475 51.231 13.4191 52.0037 13.4191C52.6412 13.4191 52.9889 13.13 52.9889 12.7584C52.9889 11.2307 47.2904 12.49 47.2904 8.65004C47.2904 6.83327 48.8357 5.32617 51.7333 5.32617C54.6501 5.32617 56.1762 6.8952 56.4273 8.95972H53.0468C52.9309 8.31972 52.448 7.92746 51.656 7.92746C51.0379 7.92746 50.7288 8.1752 50.7288 8.56746C50.7288 10.0539 56.4466 8.85649 56.4659 12.8204C56.4852 14.6165 54.7853 15.9997 52.023 15.9997Z" fill="#0FC97B"/>
<path d="M3.03543 3.83959C1.70257 3.83959 0.833313 3.01378 0.833313 1.96088C0.833313 0.907975 1.70257 0.0615234 3.03543 0.0615234C4.34898 0.0615234 5.21824 0.88733 5.21824 1.96088C5.21824 3.01378 4.34898 3.83959 3.03543 3.83959Z" fill="#0FC97B"/>
<path d="M9.25512 0H12.8674L11.1675 3.75742H7.55524L9.25512 0Z" fill="#0FC97B"/>
</g>
<defs>
<clipPath id="clip0_1115_1118">
<rect width="55.6518" height="16" fill="white" transform="translate(0.833313)"/>
</clipPath>
</defs>
</svg>
