<svg width="17" height="16" viewBox="0 0 17 16" fill="none" xmlns="http://www.w3.org/2000/svg">
<path d="M8.26245 1C4.39683 1 1.26245 4.13438 1.26245 8C1.26245 11.8656 4.39683 15 8.26245 15C12.1281 15 15.2625 11.8656 15.2625 8C15.2625 4.13438 12.1281 1 8.26245 1ZM8.26245 13.8125C5.05308 13.8125 2.44995 11.2094 2.44995 8C2.44995 4.79063 5.05308 2.1875 8.26245 2.1875C11.4718 2.1875 14.075 4.79063 14.075 8C14.075 11.2094 11.4718 13.8125 8.26245 13.8125ZM9.00776 7.6375L8.61089 7.54531V5.44688C9.20464 5.52813 9.57183 5.9 9.63433 6.35625C9.64214 6.41875 9.69526 6.46406 9.75776 6.46406H10.4593C10.5328 6.46406 10.5906 6.4 10.5843 6.32656C10.489 5.35313 9.68745 4.72813 8.61714 4.62031V4.10938C8.61714 4.04063 8.56089 3.98438 8.49214 3.98438H8.05308C7.98433 3.98438 7.92808 4.04063 7.92808 4.10938V4.625C6.82183 4.73281 5.9562 5.34375 5.9562 6.48438C5.9562 7.54063 6.73433 8.05 7.55151 8.24531L7.93745 8.34375V10.5734C7.24683 10.4812 6.85933 10.1125 6.77964 9.61563C6.77026 9.55625 6.71714 9.5125 6.6562 9.5125H5.93433C5.86089 9.5125 5.80308 9.575 5.80933 9.64844C5.87964 10.5078 6.5312 11.2984 7.92183 11.4V11.8906C7.92183 11.9594 7.97808 12.0156 8.04683 12.0156H8.49058C8.55933 12.0156 8.61558 11.9594 8.61558 11.8891L8.61245 11.3938C9.83589 11.2859 10.7109 10.6313 10.7109 9.45625C10.7093 8.37188 10.0203 7.8875 9.00776 7.6375ZM7.93589 7.38438C7.84839 7.35938 7.77495 7.33594 7.70151 7.30625C7.17339 7.11562 6.92808 6.80781 6.92808 6.41094C6.92808 5.84375 7.35776 5.52031 7.93589 5.44688V7.38438ZM8.61089 10.5781V8.48906C8.65933 8.50312 8.70308 8.51406 8.74839 8.52344C9.48745 8.74844 9.73589 9.06094 9.73589 9.54062C9.73589 10.1516 9.27651 10.5188 8.61089 10.5781Z" fill="#5F5F5F"/>
</svg>
